# xmcd
#
# Track frame offsets:
# 150
# 16927
# 37621
# 50662
# 65327
# 78327
# 96276
# 111023
# 123221
# 138787
# 154972
# 173011
# 190840
# 208648
# 223342
# 238107
# 257727
# 276608
# 294067
# 315815
# 329832
# 346268
#
# Disc length: 4798 seconds
#
#
# Revision: 0
# Processed by: cddbd v1.5.1PL2 Copyright (c) Steve Scherf et al.
# Submitted via: FreeRIP 2.945 
#
DISCID=3b12bc16
DTITLE=varios - Country  Collection  Vol. 1
DYEAR=2006
DGENRE=Rock
TTITLE0=1 - Little  Country  Girl
TTITLE1=2 - Ain't  Going  Down ( Til   The  Sun  Gomes  Up )
TTITLE2=3 - Dumas  Walkers
TTITLE3=4 - Some  Girls  Do
TTITLE4=Don't  Rock  Junkebox
TTITLE5=6 - Chattahoochie
TTITLE6=7 - Driving  My  Life  Away
TTITLE7=8 - Whiskey  Ain't  Working
TTITLE8=9 - Chambala
TTITLE9=Lay  Down  Sally
TTITLE10=11 - Why  Do  You  Drink
TTITLE11=12 - Oh  Lonesome  me
TTITLE12=13 - Nothin'  But  The  Tailights
TTITLE13=14 - I'm  Gonna  Miss  Her
TTITLE14=15 - If  I  Said  You  Had  Beutiful
TTITLE15=16 - Friends  In  Low  Places
TTITLE16=17 - Girl  In  The  Billboard
TTITLE17=18 - Living  On  Love
TTITLE18=19 - That  Summer
TTITLE19=20 - Three  Time  Loser
TTITLE20=21 - My  Next  30  Years
TTITLE21=22 - BBK  Stain
EXTD=Year: 2006
EXTT0=
EXTT1=
EXTT2=
EXTT3=
EXTT4=
EXTT5=
EXTT6=
EXTT7=
EXTT8=
EXTT9=
EXTT10=
EXTT11=
EXTT12=
EXTT13=
EXTT14=
EXTT15=
EXTT16=
EXTT17=
EXTT18=
EXTT19=
EXTT20=
EXTT21=
PLAYORDER=
